<svg width="17" height="16" fill="none" xmlns="http://www.w3.org/2000/svg"><path fill-rule="evenodd" clip-rule="evenodd" d="M15.333 9.333a.671.671 0 01.667.707A6.339 6.339 0 019.673 16H6.327A6.339 6.339 0 010 10.04a.677.677 0 01.18-.493.657.657 0 01.487-.214h2.412A.333.333 0 003.4 9.1a1.333 1.333 0 011.267-.933h3.336c.58.002 1.093.38 1.267.933.043.14.172.234.318.234h3.578a.333.333 0 00.333-.333V2a.667.667 0 00-1.112-.498l-.273.273a.333.333 0 00-.08.342 1.91 1.91 0 01-.455 1.959l-.133.137a.667.667 0 01-.943 0L8.74 2.449a.667.667 0 010-.943l.137-.137A1.954 1.954 0 0110.83.924a.333.333 0 00.336-.082l.309-.309A2 2 0 0114.833 2v7c0 .184.15.333.334.333h.166zM7.667 13.5c.184 0 .333-.15.333-.333V9.833a.333.333 0 00-.333-.333H5a.333.333 0 00-.333.333v3.334c0 .184.149.333.333.333h2.667z" fill="#000"/><path d="M6 4.059c.096 0 .192-.02.28-.06l1.21-.558a.667.667 0 10-.557-1.212l-1.212.558A.667.667 0 006 4.059zm3.415 3.614a.667.667 0 00.874-.352l.524-1.226a.667.667 0 00-1.226-.524l-.52 1.23a.667.667 0 00.348.872zM6.99 6.05a.667.667 0 00.943.005l.948-.937a.667.667 0 00-.937-.948l-.948.938a.667.667 0 00-.005.943z" fill="#000"/></svg>