<svg width="16" height="16" fill="none" xmlns="http://www.w3.org/2000/svg"><path fill-rule="evenodd" clip-rule="evenodd" d="M12.5 2h1.833c.737 0 1.334.597 1.334 1.333v11.334c0 .736-.597 1.333-1.334 1.333H1.667a1.333 1.333 0 01-1.334-1.333V3.333C.333 2.597.93 2 1.667 2h1C2.85 2 3 2.15 3 2.333v1.5a.5.5 0 101 0V.667a.667.667 0 011.333 0v1.167c0 .092.075.166.167.166h4.167c.184 0 .333.15.333.333v1.5a.5.5 0 001 0V.667a.667.667 0 011.333 0v1.166c0 .092.075.167.167.167zM2 14.667h12c.184 0 .333-.15.333-.334v-8A.333.333 0 0014 6H2a.333.333 0 00-.333.333v8c0 .184.149.334.333.334z" fill="#000"/></svg>