<svg width="16" height="16" fill="none" xmlns="http://www.w3.org/2000/svg"><path d="M15.8 3.945L8.133.61a.328.328 0 00-.266 0L.2 3.945a.333.333 0 00-.2.305v1c0 .184.15.333.333.333h15.334A.333.333 0 0016 5.25v-1a.333.333 0 00-.2-.305zm-4.3 5.638H4.833a.5.5 0 000 1H11.5a.5.5 0 100-1zm0 2.334H4.833a.5.5 0 000 1H11.5a.5.5 0 100-1z" fill="#000"/><path fill-rule="evenodd" clip-rule="evenodd" d="M15.333 14.083a.667.667 0 110 1.334H.667a.667.667 0 010-1.334H1a.333.333 0 00.333-.333V6.917c0-.184.15-.334.334-.334h12.666c.184 0 .334.15.334.334v6.833c0 .184.149.333.333.333h.333zM4 8.25a.667.667 0 00-.667.667v4.833c0 .184.15.333.334.333h9A.333.333 0 0013 13.75V8.917a.667.667 0 00-.667-.667H4z" fill="#000"/></svg>