<svg width="14" height="12" fill="none" xmlns="http://www.w3.org/2000/svg"><path d="M6.046 1.935h1.908c.884.001 1.65.609 1.853 1.469a.16.16 0 00.155.122h2.924a.159.159 0 00.16-.159v-1.59A1.272 1.272 0 0011.773.503H2.227A1.272 1.272 0 00.954 1.776v1.591a.159.159 0 00.16.16h2.924a.16.16 0 00.155-.123c.203-.86.97-1.468 1.853-1.469zM.636 4.481A.636.636 0 000 5.117v3.341c0 .303.213.563.51.624a.16.16 0 01.126.155v1.289a.636.636 0 101.273 0V9.254a.159.159 0 01.159-.16h9.864a.159.159 0 01.159.16v1.272a.636.636 0 101.273 0V9.237a.16.16 0 01.127-.155.636.636 0 00.509-.624v-3.34a.636.636 0 00-.636-.637H.636z" fill="#000"/></svg>