<svg width="16" height="16" fill="none" xmlns="http://www.w3.org/2000/svg"><path d="M4.667 3a.667.667 0 00.666-.667V.667A.667.667 0 104 .667v1.666c0 .369.298.667.667.667zM3 4.667A.667.667 0 002.333 4H.667a.667.667 0 000 1.333h1.666A.667.667 0 003 4.667zm-.667 6H.667a.667.667 0 000 1.333h1.666a.667.667 0 000-1.333zm9-10.667a.667.667 0 00-.666.667v1.666a.667.667 0 001.333 0V.667A.667.667 0 0011.333 0zM4.667 13a.667.667 0 00-.667.667v1.666a.667.667 0 101.333 0v-1.666A.667.667 0 004.667 13zm6.666 0a.667.667 0 00-.666.667v1.666a.667.667 0 001.333 0v-1.666a.667.667 0 00-.667-.667zm2.334-7.667h1.666a.667.667 0 100-1.333h-1.666a.667.667 0 100 1.333zm1.666 5.334h-1.666a.667.667 0 000 1.333h1.666a.667.667 0 000-1.333z" fill="#000"/><path fill-rule="evenodd" clip-rule="evenodd" d="M11.333 4c.368 0 .667.298.667.667v6.666a.667.667 0 01-.667.667H4.667A.667.667 0 014 11.333V4.667C4 4.298 4.298 4 4.667 4h6.666zm-1 6.667c.184 0 .334-.15.334-.334V5.667a.333.333 0 00-.334-.334H5.667a.333.333 0 00-.334.334v4.666c0 .184.15.334.334.334h4.666z" fill="#000"/></svg>